<?xml version="1.0" encoding="UTF-8" standalone="no"?>
<!-- Created with Inkscape (http://www.inkscape.org/) -->

<svg
   width="112.96124mm"
   height="112.96124mm"
   viewBox="0 0 112.96124 112.96124"
   version="1.1"
   id="svg2590"
   inkscape:version="1.2.2 (1:1.2.2+202212051552+b0a8486541)"
   sodipodi:docname="logo.svg"
   xmlns:inkscape="http://www.inkscape.org/namespaces/inkscape"
   xmlns:sodipodi="http://sodipodi.sourceforge.net/DTD/sodipodi-0.dtd"
   xmlns="http://www.w3.org/2000/svg"
   xmlns:svg="http://www.w3.org/2000/svg">
  <sodipodi:namedview
     id="namedview2592"
     pagecolor="#505050"
     bordercolor="#ffffff"
     borderopacity="1"
     inkscape:showpageshadow="0"
     inkscape:pageopacity="0"
     inkscape:pagecheckerboard="1"
     inkscape:deskcolor="#505050"
     inkscape:document-units="mm"
     showgrid="false"
     inkscape:zoom="1.0708779"
     inkscape:cx="140.07199"
     inkscape:cy="220.84684"
     inkscape:window-width="1920"
     inkscape:window-height="1016"
     inkscape:window-x="0"
     inkscape:window-y="27"
     inkscape:window-maximized="1"
     inkscape:current-layer="layer1" />
  <defs
     id="defs2587" />
  <g
     inkscape:label="Layer 1"
     inkscape:groupmode="layer"
     id="layer1"
     transform="translate(-0.184042,-0.22755112)">
    <g
       id="g604-3"
       transform="matrix(0.73627218,0,0,0.73627218,-18.668981,-12.140039)"
       inkscape:label="logo-white"
       style="display:inline;stroke-width:0.99963;stroke-dasharray:none"
       inkscape:export-filename="./white-icon-only-3.png"
       inkscape:export-xdpi="441.35464"
       inkscape:export-ydpi="441.35464">
      <path
         id="path590-6"
         style="fill:none;stroke:#ffffff;stroke-width:9.50735;stroke-dasharray:none;stroke-opacity:1"
         d="M 174.27559,93.509186 A 71.957932,71.957932 0 0 1 102.31766,165.46712 71.957932,71.957932 0 0 1 30.359726,93.509186 71.957932,71.957932 0 0 1 102.31766,21.551254 71.957932,71.957932 0 0 1 174.27559,93.509186 Z" />
      <g
         id="g602-0"
         transform="matrix(0.89707542,0,0,0.89707542,10.490932,9.6962877)"
         inkscape:label="g602"
         style="stroke-width:1.11432;stroke-dasharray:none">
        <path
           style="fill:#ffffff;fill-opacity:1;stroke:none;stroke-width:1.11432;stroke-dasharray:none;stroke-opacity:1"
           d="m 80.746888,158.25822 c -5.890208,-0.63434 -38.997554,-12.11568 -45.743755,-56.52087 19.014912,3.8822 22.437234,20.38153 24.016962,24.02755 0.735384,1.69726 7.885849,-1.54169 6.533889,-22.50298 -1.847363,2.36224 -4.922821,2.91897 -4.922821,2.91897 0,0 3.220557,-3.10245 6.041657,-14.880899 7.397064,15.076139 7.046944,36.722599 1.733378,39.850839 -4.287192,2.52398 -13.106706,1.11406 -17.991682,-5.17928 7.558848,15.37532 22.699296,27.11092 30.332372,32.28667 z"
           id="path592-6"
           sodipodi:nodetypes="ccscccscc" />
        <path
           style="fill:#ffffff;fill-opacity:1;stroke:none;stroke-width:1.11432;stroke-dasharray:none;stroke-opacity:1"
           d="m 71.36723,87.187454 c 0,0 12.144473,-13.320927 -4.140766,-47.393865 C 62.167964,59.668302 47.971175,59.428673 44.531931,78.420722 41.101468,73.802099 39.9053,66.344371 39.9053,66.344371 c -1.562009,4.563238 -3.863562,11.848174 -0.933784,20.689199 -2.119087,-1.976622 -3.289262,-5.779041 -3.289262,-5.779041 0,0 -4.983668,10.645792 1.851606,18.417846 -1.043603,-6.009022 -0.174911,-9.774741 -0.07168,-9.34815 0,0 2.916096,6.219378 7.238257,6.177582 -0.892726,-4.181242 -3.285308,-11.071968 -3.285308,-11.071968 0,0 11.917715,12.865643 14.380285,24.772781 5.838723,-18.970727 -5.605592,-20.786215 -5.199442,-28.29682 0.476594,-8.813272 8.154195,-9.541572 14.921914,-19.396754 0.502134,10.806973 6.475098,15.529282 5.849344,24.678408 z"
           id="path594-2"
           sodipodi:nodetypes="cccccccccccscc" />
        <path
           style="fill:#ffffff;fill-opacity:1;stroke:none;stroke-width:1.11432;stroke-dasharray:none;stroke-opacity:1"
           d="M 83.76423,43.512991 C 84.765665,61.697242 59.445351,105.70333 96.857895,119.6765 80.683186,103.42625 84.582341,81.882223 84.582341,81.882223 c 0,0 3.137144,10.616013 13.43122,12.986801 -3.817765,-7.236127 0.898013,-24.040797 0.898013,-24.040797 l 1.351226,2.091363 c 0,0 -0.854297,14.889777 8.28633,14.524116 9.9861,-0.399483 -1.94332,-20.000489 -1.94332,-20.000489 0,0 1.99428,-7.766861 8.43295,-17.770208 4.88118,16.919775 18.52375,16.475797 7.69605,48.481405 29.92416,-36.10608 -5.08782,-55.530325 -5.29239,-69.903743 -16.52164,15.465098 -15.81005,33.918929 -15.81005,33.918929 0,0 -2.460081,-2.62263 -5.558356,-4.759349 C 98.221437,70.182268 91.461554,73.707362 93.1056,87.039388 84.092472,75.178093 93.06836,61.203186 83.76423,43.512991 Z"
           id="path596-6"
           sodipodi:nodetypes="ccccccscccccccc" />
        <path
           style="fill:#ffffff;fill-opacity:1;stroke:none;stroke-width:1.11432;stroke-dasharray:none;stroke-opacity:1"
           d="M 89.333095,157.72106 C 64.156539,138.29683 78.788945,112.22009 72.886893,99.954492 86.750459,117.01404 77.727897,129.59826 94.313,137.49575 c 3.735116,1.77859 9.08317,-8.82913 7.18214,-21.73614 -1.628898,-11.05943 3.4638,-23.782459 18.47406,-35.304563 -3.11183,13.8516 6.67691,23.701043 2.56895,34.957543 -2.16878,-4.02971 -2.0165,-6.302 -7.12997,-10.52502 -4.88368,5.58504 -2.19629,9.41839 -4.33251,16.64958 -1.95089,6.60383 -2.81414,13.51123 -12.890183,23.69448 -3.927591,3.96938 -8.185622,2.22402 -10.722355,0.34783 -2.536732,-1.8762 -3.943686,-4.57244 -3.943686,-4.57244 0,0 0.350915,8.04187 5.813649,16.71404 z"
           id="path598-1"
           sodipodi:nodetypes="ccsscccssscc" />
        <path
           style="fill:#ffffff;fill-opacity:1;stroke:none;stroke-width:1.11432;stroke-dasharray:none;stroke-opacity:1"
           d="m 96.920551,155.39867 c 0,0 18.684409,-14.29005 21.981839,-38.77895 17.82584,13.21251 10.70991,27.64272 10.70991,27.64272 0,0 11.44459,-2.49408 11.97183,-15.45548 0.37537,-9.22779 -9.54068,-11.9219 -10.18593,-26.83805 -0.54881,-12.686749 6.30422,-22.386532 11.21858,-26.270527 0.76296,8.881448 5.61069,17.279741 5.61069,17.279741 -1.14595,-14.534373 7.66059,-19.906771 2.22295,-40.870413 6.73649,6.425444 16.36421,15.873863 18.54589,28.290543 3.7316,21.237736 -4.26937,27.708666 -4.1956,41.808466 -6.90761,-11.95568 1.94111,-22.515573 -5.33834,-32.023997 -9.14677,18.384137 4.52064,31.354047 -4.46238,44.703267 0.9618,-8.90286 -2.51158,-16.81672 -5.27717,-21.72951 -3.47396,-6.17114 -7.75104,-9.80511 -9.92469,-19.287264 -1.91251,4.303104 -2.57381,11.276934 -1.20037,14.545554 2.66771,6.34883 9.88132,12.39277 10.15998,17.20592 0.72496,12.52145 -2.18475,23.61538 -27.82778,33.89879 0.98801,-6.37534 2.0076,-16.49916 0.79314,-21.15422 -11.09204,14.501 -24.802569,17.03341 -24.802569,17.03341 z"
           id="path600-8"
           sodipodi:nodetypes="cccsscccscccscsscccc" />
      </g>
    </g>
  </g>
</svg>
